#!OML:ASF H:\Male1\Project 1\Capture day 1\Session 1\Male1.ASF
:FULLY-SPECIFIED
:DEGREES
193
root 33.4164 15.2795 1.0725 -11.2122 105.814 -10.638
lowerback 4.02343 5.73725 1.17512
upperback 3.16665 7.79396 -2.05185
thorax 1.4635 3.99053 -2.93705
lowerneck 8.1355 18.175 20.9608
upperneck 0.876891 26.261 -14.4825
head 3.58093 13.3698 -6.21474
rclavicle 1.95933e-013 -4.08999e-014
rhumerus -49.4699 -3.9353 -79.283
rradius 45.29
rwrist -28.3446
rhand -22.1472 -0.943551
rfingers 7.12502
rthumb 4.26661 -30.8806
lclavicle 1.95933e-013 -4.08999e-014
lhumerus -26.2181 2.02752 82.6285
lradius 26.3789
lwrist -3.81835
lhand -20.7598 9.52299
lfingers 7.12502
lthumb 5.60629 39.4288
rfemur -9.36223 16.5336 23.0943
rtibia 35.4712
rfoot -41.8155 -33.1167
rtoes -3.66445
lfemur -12.8945 -23.9298 -22.6467
ltibia 32.6878
lfoot -19.7013 11.9312
ltoes -12.218
194
root 33.4154 15.2786 1.0743 -11.4403 105.638 -10.985
lowerback 4.02127 5.69196 1.02714
upperback 3.13128 7.72691 -2.04922
thorax 1.40385 3.95241 -2.85585
lowerneck 8.0343 18.1071 21.1442
upperneck 0.916151 26.1913 -14.8097
head 3.6672 13.3357 -6.31829
rclavicle -5.64983e-014 1.13307e-014
rhumerus -49.2468 -3.92567 -79.2819
rradius 45.0871
rwrist -28.2228
rhand -21.5482 -1.29196
rfingers 7.12502
rthumb 4.84505 -31.2166
lclavicle -5.64983e-014 1.13307e-014
lhumerus -25.7434 0.66096 83.4811
lradius 26.7901
lwrist -3.11376
lhand -21.3158 9.02906
lfingers 7.12502
lthumb 5.06945 38.9484
rfemur -9.56783 16.5191 22.9907
rtibia 35.5894
rfoot -41.7715 -32.93
rtoes -3.52189
lfemur -12.9663 -23.9164 -22.6604
ltibia 32.6293
lfoot -19.6445 12.1139
ltoes -12.5149
195
root 33.4153 15.2824 1.07481 -11.6109 105.474 -11.2869
lowerback 3.95454 5.61166 0.881123
upperback 3.09235 7.61321 -2.05768
thorax 1.37586 3.89125 -2.7791
lowerneck 8.05159 18.0494 21.2805
upperneck 0.865151 26.1393 -15.0511
head 3.69242 13.3132 -6.40919
rclavicle -9.62553e-014 2.85753e-014
rhumerus -49.0321 -3.89476 -79.3472
rradius 44.8528
rwrist -28.0369
rhand -21.1596 -1.1696
rfingers 7.12502
rthumb 5.22021 -31.0853
lclavicle -9.62553e-014 2.85753e-014
lhumerus -25.6643 -2.87787 84.6782
lradius 27.8025
lwrist -0.321815
lhand -21.7089 9.12819
lfingers 7.12502
lthumb 4.68984 39.0563
rfemur -9.8106 16.4796 22.869
rtibia 35.691
rfoot -41.6568 -32.8435
rtoes -3.50409
lfemur -13.049 -23.8907 -22.6655
ltibia 32.5865
lfoot -19.6055 12.2554
ltoes -12.5789
196
root 33.4149 15.2847 1.07684 -11.8063 105.262 -11.532
lowerback 3.94916 5.47092 0.714478
upperback 3.03869 7.41803 -2.07654
thorax 1.2935 3.78872 -2.70814
lowerneck 8.25038 18.0286 21.5126
upperneck 0.786763 26.1751 -15.2576
head 3.70329 13.3409 -6.50689
rclavicle 5.58461e-015 -2.96189e-014
rhumerus -48.7952 -3.63168 -79.6352
rradius 44.4529
rwrist -27.9236
rhand -21.0756 -0.916549
rfingers 7.12502
rthumb 5.30131 -30.8302
lclavicle 5.58461e-015 -2.96189e-014
lhumerus -25.7197 -4.22077 85.2131
lradius 28.9564
lwrist 0.2738
lhand -21.2111 9.35135
lfingers 7.12502
lthumb 5.17057 39.2683
rfemur -9.96795 16.5389 22.8149
rtibia 35.7779
rfoot -41.5243 -32.843
rtoes -3.73009
lfemur -13.05 -23.7965 -22.6575
ltibia 32.5337
lfoot -19.6367 12.3235
ltoes -12.2677
197
root 33.4156 15.2845 1.07982 -12.075 105.021 -11.8073
lowerback 4.06897 5.53293 0.71909
upperback 3.03603 7.50132 -2.10161
thorax 1.23294 3.83095 -2.75082
lowerneck 7.99587 17.9341 21.3563
upperneck 0.856259 25.9886 -15.1962
head 3.70298 13.2384 -6.47449
rclavicle 1.20637e-014 1.75924e-014
rhumerus -48.562 -3.8945 -79.6063
rradius 44.0077
rwrist -27.7637
rhand -21.0676 -0.721516
rfingers 7.12502
rthumb 5.30906 -30.635
lclavicle 1.20637e-014 1.75924e-014
lhumerus -25.5711 -5.1001 85.8151
lradius 30.0962
lwrist 0.130505
lhand -20.5596 9.44523
lfingers 7.12502
lthumb 5.7996 39.3459
rfemur -10.0531 16.7117 22.7985
rtibia 35.8534
rfoot -41.4545 -32.861
rtoes -3.93994
lfemur -12.9933 -23.7516 -22.6625
ltibia 32.4752
lfoot -19.7038 12.434
ltoes -11.6756
198
root 33.4207 15.2816 1.07994 -12.707 104.891 -12.4041
lowerback 4.10323 5.49175 0.556029
upperback 3.04221 7.44312 -2.14232
thorax 1.2018 3.79996 -2.70625
lowerneck 7.98931 17.8361 21.4456
upperneck 0.902249 25.8736 -15.2758
head 3.72068 13.1833 -6.5205
rclavicle 4.93669e-014 -1.67973e-014
rhumerus -48.3872 -4.12434 -79.5871
rradius 43.6981
rwrist -27.2978
rhand -20.854 -0.751008
rfingers 7.12502
rthumb 5.51535 -30.6592
lclavicle 4.93669e-014 -1.67973e-014
lhumerus -25.6171 -5.61374 86.262
lradius 31.3436
lwrist 0.246322
lhand -20.0939 9.58674
lfingers 7.12502
lthumb 6.24919 39.4746
rfemur -10.0009 16.7126 22.6798
rtibia 35.9047
rfoot -41.433 -32.7144
rtoes -3.839
lfemur -12.857 -23.7603 -22.841
ltibia 32.443
lfoot -19.6808 12.5938
ltoes -11.4497
199
root 33.4271 15.2773 1.07784 -13.3782 104.797 -13.0497
lowerback 4.03924 5.35565 0.277184
upperback 3.06368 7.25476 -2.1425
thorax 1.21472 3.70108 -2.54351
lowerneck 8.10106 17.7542 21.6872
upperneck 0.966834 25.8307 -15.5208
head 3.7809 13.1712 -6.6273
rclavicle -2.96313e-015 -3.13086e-015
rhumerus -48.1703 -4.0302 -79.6617
rradius 43.4406
rwrist -27.0075
rhand -20.6406 -1.00878
rfingers 7.12502
rthumb 5.72131 -30.9115
lclavicle -2.96313e-015 -3.13086e-015
lhumerus -25.772 -5.74038 86.6417
lradius 32.6177
lwrist 0.553764
lhand -19.9486 9.51054
lfingers 7.12502
lthumb 6.38942 39.3942
rfemur -9.91809 16.5419 22.5215
rtibia 35.9407
rfoot -41.3823 -32.4008
rtoes -3.63094
lfemur -12.7309 -23.77 -23.0562
ltibia 32.4211
lfoot -19.5599 12.8098
ltoes -11.7319
200
root 33.4293 15.2774 1.07666 -13.3976 104.564 -13.1816
lowerback 3.89752 5.27102 0.166932
upperback 3.05455 7.13763 -2.11307
thorax 1.26089 3.63911 -2.43718
lowerneck 8.01849 17.71 21.8264
upperneck 1.11401 25.7937 -15.6716
head 3.8708 13.1532 -6.67311
rclavicle 7.40473e-015 8.94531e-015
rhumerus -47.856 -3.88427 -79.7522
rradius 43.0939
rwrist -27.0013
rhand -20.6774 -0.992343
rfingers 7.12502
rthumb 5.68579 -30.8961
lclavicle 7.40473e-015 8.94531e-015
lhumerus -25.6954 -5.86119 87.0114
lradius 33.6508
lwrist 0.951289
lhand -20.1159 9.15695
lfingers 7.12502
lthumb 6.22792 39.0454
rfemur -10.0953 16.5276 22.4895
rtibia 36.0183
rfoot -41.2022 -32.2788
rtoes -3.88835
lfemur -12.769 -23.7601 -23
ltibia 32.3261
lfoot -19.4957 13.0425
ltoes -11.6939
201
root 33.4377 15.2769 1.07686 -13.7982 104.436 -13.6145
lowerback 3.73704 5.17843 -0.0517098
upperback 3.11898 7.01291 -2.1041
thorax 1.38338 3.57382 -2.28652
lowerneck 7.72465 17.7039 21.6968
upperneck 1.25366 25.7223 -15.5587
head 3.91367 13.1052 -6.60322
rclavicle 4.1459e-014 -4.42296e-015
rhumerus -47.5326 -3.91306 -79.7887
rradius 42.7606
rwrist -26.8704
rhand -20.8096 -0.752453
rfingers 7.12502
rthumb 5.55816 -30.6596
lclavicle 4.1459e-014 -4.42296e-015
lhumerus -25.5757 -5.92349 87.3012
lradius 34.6998
lwrist 1.24662
lhand -20.0619 8.84699
lfingers 7.12502
lthumb 6.28006 38.7339
rfemur -10.1384 16.6037 22.4186
rtibia 36.117
rfoot -41.1593 -32.2998
rtoes -4.16617
lfemur -12.6539 -23.7393 -23.0946
ltibia 32.194
lfoot -19.5581 13.1357
ltoes -11.2537
202
root 33.4693 15.2654 1.0734 -16.2595 104.795 -15.6949
lowerback 3.66023 4.94058 -0.81566
upperback 3.38971 6.69984 -2.18874
thorax 1.61585 3.4107 -1.92803
lowerneck 7.45924 17.6907 21.4389
upperneck 1.2784 25.6151 -15.3185
head 3.87717 13.0382 -6.49953
rclavicle 9.82866e-014 -1.21259e-014
rhumerus -47.2977 -3.8557 -79.8988
rradius 42.5128
rwrist -26.7052
rhand -20.899 -0.516859
rfingers 7.12502
rthumb 5.47182 -30.4262
lclavicle 9.82866e-014 -1.21259e-014
lhumerus -25.7595 -5.9456 87.5013
lradius 36.0719
lwrist 1.56294
lhand -19.8248 8.91705
lfingers 7.12502
lthumb 6.50894 38.797
rfemur -9.48574 16.2232 21.916
rtibia 36.2567
rfoot -41.3665 -32.0955
rtoes -4.35507
lfemur -11.8224 -23.8728 -24.0783
ltibia 32.0074
lfoot -19.6425 13.1225
ltoes -10.9249
203
root 33.473 15.2688 1.07644 -16.958 104.687 -16.4823
lowerback 3.6518 4.99663 -0.96176
upperback 3.40223 6.7747 -2.24841
thorax 1.62646 3.44694 -1.90904
lowerneck 6.89642 17.479 21.2702
upperneck 1.57827 25.2297 -15.1885
head 3.9496 12.8264 -6.43648
rclavicle -9.53918e-014 2.70347e-014
rhumerus -47.1951 -4.2225 -79.8012
rradius 42.3683
rwrist -26.6881
rhand -21.0513 -0.301742
rfingers 7.12502
rthumb 5.32481 -30.2148
lclavicle -9.53918e-014 2.70347e-014
lhumerus -25.848 -6.55461 87.9167
lradius 37.3213
lwrist 1.93971
lhand -19.7709 9.01119
lfingers 7.12502
lthumb 6.56095 38.8896
rfemur -9.62771 16.3086 21.7315
rtibia 36.3795
rfoot -41.3401 -32.0337
rtoes -4.60135
lfemur -11.7716 -23.8649 -24.2229
ltibia 31.838
lfoot -19.5833 13.2511
ltoes -10.7063
